<svg height="512pt" viewBox="0 0 512 512" width="512pt" xmlns="http://www.w3.org/2000/svg"><path d="m7.5 7.5h497v497h-497zm0 0" fill="#7a727d"/><path d="m474.5 7.5h30v497h-30zm0 0" fill="#645c69"/><path d="m504.5 106.5v299h-497v-299zm0 0" fill="#42a5f5"/><path d="m474.5 106.5h30v299h-30zm0 0" fill="#2196f3"/><g fill="#e3e6eb"><path d="m37.5 37.5h40v40h-40zm0 0"/><path d="m116.898438 37.5h40v40h-40zm0 0"/><path d="m196.300781 37.5h40v40h-40zm0 0"/><path d="m275.699219 37.5h40v40h-40zm0 0"/><path d="m355.101562 37.5h40v40h-40zm0 0"/><path d="m434.5 37.5h40v40h-40zm0 0"/><path d="m37.5 434.5h40v40h-40zm0 0"/><path d="m116.898438 434.5h40v40h-40zm0 0"/><path d="m196.300781 434.5h40v40h-40zm0 0"/><path d="m275.699219 434.5h40v40h-40zm0 0"/><path d="m355.101562 434.5h40v40h-40zm0 0"/><path d="m434.5 434.5h40v40h-40zm0 0"/><path d="m397.863281 181.3125v44l-30-.03125-42.839843-.050781v-44l42.839843.050781zm0 0"/></g><path d="m397.863281 181.3125v44l-30-.03125v-44zm0 0" fill="#cccfd4"/><path d="m40.140625 253.800781 101-28.113281v-44h-101zm0 0" fill="#ba8068"/><path d="m111.140625 181.6875v52.351562l30-8.351562v-44zm0 0" fill="#ab725c"/><path d="m325.023438 174.230469v58l-29.992188.011719-153.886719.070312v-58l153.878907-.070312zm0 0" fill="#7a727d"/><path d="m325.023438 174.230469v58l-29.992188.011719-.007812-.011719v-57.988281zm0 0" fill="#645c69"/><path d="m471.859375 218.316406h-74v-30h74zm0 0" fill="#7a727d"/><path d="m441.859375 188.316406h30v30h-30zm0 0" fill="#645c69"/><path d="m284.253906 368.683594h-42.253906v-105.976563h42.253906zm0 0" fill="#645c69"/><path d="m176.859375 262.683594h109.046875c10.609375 0 19.207031-8.601563 19.207031-19.207032v-11.246093h-128.253906zm0 0" fill="#e3e6eb"/><path d="m275.113281 232.230469v11.246093c0 10.605469-8.597656 19.203126-19.207031 19.203126h30c10.609375 0 19.207031-8.597657 19.207031-19.203126v-11.246093zm0 0" fill="#cccfd4"/><path d="m471.859375 188.316406h-30v-13.332031c0-9.203125 7.460937-16.667969 16.667969-16.667969h13.332031zm0 0" fill="#e3e6eb"/><path d="m286.011719 174.230469h-108v-15.613281c0-8.449219 6.851562-15.300782 15.300781-15.300782h77.398438c8.453124 0 15.300781 6.851563 15.300781 15.300782zm0 0" fill="#e3e6eb"/><path d="m270.710938 143.316406h-30c8.453124 0 15.300781 6.851563 15.300781 15.300782v15.628906h30v-15.628906c0-8.449219-6.847657-15.300782-15.300781-15.300782zm0 0" fill="#cccfd4"/><path d="m124.800781 343.058594h42.570313c3.359375 0 6.082031-3.316406 6.082031-7.410156 0-3.964844-1.332031-7.757813-3.6875-10.492188l-.066406-.078125c-3.140625-3.652344-4.402344-9.101563-3.285157-14.214844l17.136719-78.546875h-34.941406v14.289063c0 11.882812-7.902344 21.515625-17.65625 21.515625-.550781 0-1.035156.449218-1.175781 1.101562l-13.25 60.71875c-1.445313 6.628906 2.652344 13.117188 8.273437 13.117188zm0 0" fill="#ba8068"/><path d="m504.5 0h-440.5c-4.144531 0-7.5 3.355469-7.5 7.5s3.355469 7.5 7.5 7.5h433v84h-482v-84h17.5c4.144531 0 7.5-3.355469 7.5-7.5s-3.355469-7.5-7.5-7.5h-25c-4.144531 0-7.5 3.355469-7.5 7.5v497c0 4.144531 3.355469 7.5 7.5 7.5h408.832031c4.144531 0 7.5-3.355469 7.5-7.5s-3.355469-7.5-7.5-7.5h-401.332031v-84h482v84h-48.667969c-4.140625 0-7.5 3.355469-7.5 7.5s3.359375 7.5 7.5 7.5h56.167969c4.144531 0 7.5-3.355469 7.5-7.5v-497c0-4.144531-3.355469-7.5-7.5-7.5zm-489.5 398v-284h482v284zm0 0"/><path d="m30 37.5v40c0 4.144531 3.355469 7.5 7.5 7.5h40c4.144531 0 7.5-3.355469 7.5-7.5v-40c0-4.144531-3.355469-7.5-7.5-7.5h-40c-4.144531 0-7.5 3.355469-7.5 7.5zm15 7.5h25v25h-25zm0 0"/><path d="m156.898438 85c4.144531 0 7.5-3.355469 7.5-7.5v-40c0-4.144531-3.355469-7.5-7.5-7.5h-40c-4.140626 0-7.5 3.355469-7.5 7.5v40c0 4.144531 3.359374 7.5 7.5 7.5zm-32.5-40h25v25h-25zm0 0"/><path d="m236.300781 85c4.140625 0 7.5-3.355469 7.5-7.5v-40c0-4.144531-3.359375-7.5-7.5-7.5h-40c-4.144531 0-7.5 3.355469-7.5 7.5v40c0 4.144531 3.355469 7.5 7.5 7.5zm-32.5-40h25v25h-25zm0 0"/><path d="m315.699219 85c4.144531 0 7.5-3.355469 7.5-7.5v-40c0-4.144531-3.355469-7.5-7.5-7.5h-40c-4.140625 0-7.5 3.355469-7.5 7.5v40c0 4.144531 3.359375 7.5 7.5 7.5zm-32.5-40h25v25h-25zm0 0"/><path d="m395.101562 85c4.140626 0 7.5-3.355469 7.5-7.5v-40c0-4.144531-3.359374-7.5-7.5-7.5h-40c-4.144531 0-7.5 3.355469-7.5 7.5v40c0 4.144531 3.355469 7.5 7.5 7.5zm-32.5-40h25v25h-25zm0 0"/><path d="m474.5 85c4.144531 0 7.5-3.355469 7.5-7.5v-40c0-4.144531-3.355469-7.5-7.5-7.5h-40c-4.144531 0-7.5 3.355469-7.5 7.5v40c0 4.144531 3.355469 7.5 7.5 7.5zm-32.5-40h25v25h-25zm0 0"/><path d="m37.5 427c-4.144531 0-7.5 3.355469-7.5 7.5v40c0 4.144531 3.355469 7.5 7.5 7.5h40c4.144531 0 7.5-3.355469 7.5-7.5v-40c0-4.144531-3.355469-7.5-7.5-7.5zm32.5 40h-25v-25h25zm0 0"/><path d="m116.898438 427c-4.140626 0-7.5 3.355469-7.5 7.5v40c0 4.144531 3.359374 7.5 7.5 7.5h40c4.144531 0 7.5-3.355469 7.5-7.5v-40c0-4.144531-3.355469-7.5-7.5-7.5zm32.5 40h-25v-25h25zm0 0"/><path d="m196.300781 427c-4.144531 0-7.5 3.355469-7.5 7.5v40c0 4.144531 3.355469 7.5 7.5 7.5h40c4.140625 0 7.5-3.355469 7.5-7.5v-40c0-4.144531-3.359375-7.5-7.5-7.5zm32.5 40h-25v-25h25zm0 0"/><path d="m275.699219 427c-4.140625 0-7.5 3.355469-7.5 7.5v40c0 4.144531 3.359375 7.5 7.5 7.5h40c4.144531 0 7.5-3.355469 7.5-7.5v-40c0-4.144531-3.355469-7.5-7.5-7.5zm32.5 40h-25v-25h25zm0 0"/><path d="m355.101562 427c-4.144531 0-7.5 3.355469-7.5 7.5v40c0 4.144531 3.355469 7.5 7.5 7.5h40c4.140626 0 7.5-3.355469 7.5-7.5v-40c0-4.144531-3.359374-7.5-7.5-7.5zm32.5 40h-25v-25h25zm0 0"/><path d="m482 474.5v-40c0-4.144531-3.355469-7.5-7.5-7.5h-40c-4.144531 0-7.5 3.355469-7.5 7.5v40c0 4.144531 3.355469 7.5 7.5 7.5h40c4.144531 0 7.5-3.355469 7.5-7.5zm-15-7.5h-25v-25h25zm0 0"/><path d="m471.855469 150.816406h-13.328125c-13.328125 0-24.171875 10.84375-24.171875 24.167969v5.832031h-29.015625c-.257813-3.90625-3.503906-6.996094-7.472656-7l-65.359376-.078125c-.261718-3.941406-3.535156-7.007812-7.484374-7.007812h-.003907l-31.503906.011719v-8.125c0-12.570313-10.230469-22.800782-22.804687-22.800782h-77.394532c-12.574218 0-22.800781 10.230469-22.800781 22.800782v8.1875l-29.378906.011718c-4.097657.003906-7.421875 3.289063-7.492188 7.371094h-93.503906c-4.140625 0-7.5 3.355469-7.5 7.5v72.113281c0 4.953125 4.726563 8.550781 9.511719 7.226563l92.144531-25.648438c1.195313 2.671875 3.847656 4.425782 6.8125 4.4375v6.789063c0 7.597656-4.648437 14.015625-10.15625 14.015625-4.113281 0-7.613281 2.886718-8.503906 7.003906l-13.25 60.722656c-1.265625 5.796875.101562 11.890625 3.660156 16.304688 3.023437 3.753906 7.375 5.90625 11.941406 5.90625h42.570313c7.488281 0 13.582031-6.6875 13.582031-14.910156 0-5.800782-1.953125-11.261719-5.507813-15.390626l-.0625-.070312c-1.613281-1.875-2.257812-4.90625-1.644531-7.726562l2.648438-12.144532h20.839843c15.941407 0 28.914063-12.972656 28.914063-28.914062v-1.222656h8.359375v98.503906c0 4.140625 3.355469 7.5 7.5 7.5h42.253906c4.144532 0 7.5-3.359375 7.5-7.5v-49.183594c0-4.144531-3.355468-7.5-7.5-7.5-4.144531 0-7.5 3.355469-7.5 7.5v41.683594h-27.253906v-90.976563h27.253906v17.480469c0 4.144531 3.355469 7.5 7.5 7.5 4.144532 0 7.5-3.355469 7.5-7.5v-18.152344c11.921875-2.671875 20.855469-13.34375 20.855469-26.058594v-3.742187l12.414063-.003906c3.96875-.003907 7.21875-3.089844 7.480468-6.992188l65.34375.078125h.007813c3.945312 0 7.21875-3.058594 7.484375-7h66.515625c4.144531 0 7.5-3.355468 7.5-7.5v-60c0-4.140625-3.355469-7.5-7.5-7.5zm-22.5 24.167969c0-5.054687 4.113281-9.167969 9.171875-9.167969h5.828125v15h-15zm-131.832031 49.75c-218.949219-.007813-97.800782.042969-168.882813.078125v-43l168.882813-.078125zm-132.007813-66.117187c0-4.300782 3.496094-7.800782 7.800781-7.800782h77.394532c4.304687 0 7.804687 3.5 7.804687 7.800782v8.136718l-93 .042969zm-137.875 30.570312h86v30.804688l-86 23.9375zm77.226563 146.371094c-.4375-.25-1.488282-1.832032-1.015626-4.015625l12.34375-56.554688c11.363282-2.789062 19.914063-14.457031 19.914063-28.382812v-6.789063h13.25v22.363282l-6.308594 28.90625c-.019531.082031-.039062.167968-.054687.253906l-3.910156 17.925781c-1.609376 7.371094.28125 15.304687 4.933593 20.710937l.0625.074219c1.15625 1.339844 1.851563 3.394531 1.871094 5.507813zm86.273437-64.15625c0 7.671875-6.242187 13.914062-13.914063 13.914062h-17.5625l3.300782-15.136718h28.179687v1.222656zm86.472656-27.925782c0 6.453126-5.25 11.707032-11.707031 11.707032h-99.667969l3.355469-15.386719 108.019531-.054687zm34.910157-54.738281 57.832031.070313v29l-57.832031-.070313zm131.832031 22.078125h-59v-15h59zm0 0"/><path d="m201.484375 210.773438h72.871094c4.144531 0 7.5-3.359376 7.5-7.5 0-4.144532-3.355469-7.5-7.5-7.5h-72.871094c-4.144531 0-7.5 3.355468-7.5 7.5 0 4.140624 3.359375 7.5 7.5 7.5zm0 0"/></svg>