<svg height="512pt" viewBox="0 0 512 512" width="512pt" xmlns="http://www.w3.org/2000/svg"><path d="m7.5 7.5h497v497h-497zm0 0" fill="#7a727d"/><path d="m474.5 7.5h30v497h-30zm0 0" fill="#645c69"/><path d="m504.5 106.5v299h-497v-299zm0 0" fill="#ffee58"/><path d="m474.5 106.5h30v299h-30zm0 0" fill="#fdd835"/><g fill="#e3e6eb"><path d="m37.5 37.5h40v40h-40zm0 0"/><path d="m116.898438 37.5h40v40h-40zm0 0"/><path d="m196.300781 37.5h40v40h-40zm0 0"/><path d="m275.699219 37.5h40v40h-40zm0 0"/><path d="m355.101562 37.5h40v40h-40zm0 0"/><path d="m434.5 37.5h40v40h-40zm0 0"/><path d="m37.5 434.5h40v40h-40zm0 0"/><path d="m116.898438 434.5h40v40h-40zm0 0"/><path d="m196.300781 434.5h40v40h-40zm0 0"/><path d="m275.699219 434.5h40v40h-40zm0 0"/><path d="m355.101562 434.5h40v40h-40zm0 0"/><path d="m434.5 434.5h40v40h-40zm0 0"/></g><path d="m256.261719 347.027344c.25-1.730469-.101563-3.488282-1.027344-4.972656-3.109375-5-12.351563-15.964844-31.832031-11.726563-22.902344 4.980469-27.894532 24.105469-56.28125 33.582031-2.714844.90625-2.820313 4.699219-.15625 5.746094 13.136718 5.140625 40.191406 13.40625 63.734375 5.765625 20.398437-6.617187 24.667969-22.167969 25.5625-28.394531zm0 0" fill="#7a727d"/><path d="m255.738281 347.027344c-.25-1.730469.101563-3.488282 1.027344-4.972656 3.109375-5 12.351563-15.964844 31.832031-11.726563 22.902344 4.980469 27.894532 24.105469 56.28125 33.582031 2.714844.90625 2.820313 4.699219.15625 5.746094-13.136718 5.140625-40.191406 13.40625-63.734375 5.765625-20.398437-6.617187-24.667969-22.167969-25.5625-28.394531zm0 0" fill="#7a727d"/><path d="m277.132812 336.296875s-9.792968 2.683594-12.527343 5.605469c-2.753907 2.917968-7.613281 2.722656-7.613281 2.722656s-4.863282.195312-7.601563-2.722656c-2.738281-2.917969-12.527344-5.605469-12.527344-5.605469-15.511719-7.113281-10.390625-29.136719-.664062-33.046875 9.726562-3.910156 9.058593-17.371094 9.058593-28.800781 0-15.402344 11.734376-13.773438 11.734376-13.773438s11.742187-1.628906 11.742187 13.773438c0 11.429687-.664063 24.890625 9.0625 28.800781 9.722656 3.910156 14.835937 25.933594-.664063 33.046875zm0 0" fill="#ebad88"/><path d="m277.796875 303.25c-9.726563-3.910156-9.0625-17.371094-9.0625-28.800781 0-15.402344-11.742187-13.773438-11.742187-13.773438s-11.734376-1.628906-11.734376 13.773438c0 8.359375.351563 17.796875-3.261718 23.800781 1.328125 2.203125 3.1875 3.949219 5.800781 5 9.726563 3.910156 14.835937 25.933594-.664063 33.046875 0 0-2.390624.65625-5.136718 1.667969 2.816406 1.042968 6.011718 2.457031 7.394531 3.933594 2.738281 2.921874 7.601563 2.726562 7.601563 2.726562s4.863281.195312 7.613281-2.726562c2.738281-2.917969 12.527343-5.601563 12.527343-5.601563 15.5-7.113281 10.386719-29.136719.664063-33.046875zm0 0" fill="#e8916f"/><path d="m377.964844 273.980469h-243.929688c-8.28125 0-15-6.714844-15-15 0-8.285157 6.71875-15 15-15h243.929688c8.28125 0 15 6.714843 15 15 0 8.285156-6.71875 15-15 15zm0 0" fill="#e3e6eb"/><path d="m377.964844 243.980469h-30c8.28125 0 15 6.714843 15 15 0 8.285156-6.71875 15-15 15h30c8.28125 0 15-6.714844 15-15 0-8.285157-6.71875-15-15-15zm0 0" fill="#c4c7cc"/><path d="m354.632812 243.980469h-197.929687v-30.996094c0-43.90625 35.59375-79.503906 79.503906-79.503906h38.921875c43.90625 0 79.503906 35.59375 79.503906 79.503906zm0 0" fill="#ba8068"/><path d="m275.125 133.480469h-30c43.910156 0 79.507812 35.59375 79.507812 79.503906v30.996094h30v-30.996094c0-43.910156-35.597656-79.503906-79.507812-79.503906zm0 0" fill="#ab725c"/><path d="m504.5 0h-440.5c-4.140625 0-7.5 3.355469-7.5 7.5s3.359375 7.5 7.5 7.5h433v84h-482v-84h17.5c4.140625 0 7.5-3.355469 7.5-7.5s-3.359375-7.5-7.5-7.5h-25c-4.140625 0-7.5 3.355469-7.5 7.5v497c0 4.144531 3.359375 7.5 7.5 7.5h408.832031c4.144531 0 7.5-3.355469 7.5-7.5s-3.355469-7.5-7.5-7.5h-401.332031v-84h482v84h-48.667969c-4.140625 0-7.5 3.355469-7.5 7.5s3.359375 7.5 7.5 7.5h56.167969c4.140625 0 7.5-3.355469 7.5-7.5v-497c0-4.144531-3.359375-7.5-7.5-7.5zm-489.5 398v-284h482v284zm0 0"/><path d="m30 37.5v40c0 4.144531 3.359375 7.5 7.5 7.5h40c4.140625 0 7.5-3.355469 7.5-7.5v-40c0-4.144531-3.359375-7.5-7.5-7.5h-40c-4.140625 0-7.5 3.355469-7.5 7.5zm15 7.5h25v25h-25zm0 0"/><path d="m156.898438 85c4.144531 0 7.5-3.355469 7.5-7.5v-40c0-4.144531-3.355469-7.5-7.5-7.5h-40c-4.140626 0-7.5 3.355469-7.5 7.5v40c0 4.144531 3.359374 7.5 7.5 7.5zm-32.5-40h25v25h-25zm0 0"/><path d="m236.300781 85c4.140625 0 7.5-3.355469 7.5-7.5v-40c0-4.144531-3.359375-7.5-7.5-7.5h-40c-4.144531 0-7.5 3.355469-7.5 7.5v40c0 4.144531 3.355469 7.5 7.5 7.5zm-32.5-40h25v25h-25zm0 0"/><path d="m315.699219 85c4.144531 0 7.5-3.355469 7.5-7.5v-40c0-4.144531-3.355469-7.5-7.5-7.5h-40c-4.140625 0-7.5 3.355469-7.5 7.5v40c0 4.144531 3.359375 7.5 7.5 7.5zm-32.5-40h25v25h-25zm0 0"/><path d="m395.101562 85c4.140626 0 7.5-3.355469 7.5-7.5v-40c0-4.144531-3.359374-7.5-7.5-7.5h-40c-4.144531 0-7.5 3.355469-7.5 7.5v40c0 4.144531 3.355469 7.5 7.5 7.5zm-32.5-40h25v25h-25zm0 0"/><path d="m474.5 85c4.140625 0 7.5-3.355469 7.5-7.5v-40c0-4.144531-3.359375-7.5-7.5-7.5h-40c-4.140625 0-7.5 3.355469-7.5 7.5v40c0 4.144531 3.359375 7.5 7.5 7.5zm-32.5-40h25v25h-25zm0 0"/><path d="m37.5 427c-4.140625 0-7.5 3.355469-7.5 7.5v40c0 4.144531 3.359375 7.5 7.5 7.5h40c4.140625 0 7.5-3.355469 7.5-7.5v-40c0-4.144531-3.359375-7.5-7.5-7.5zm32.5 40h-25v-25h25zm0 0"/><path d="m116.898438 427c-4.140626 0-7.5 3.355469-7.5 7.5v40c0 4.144531 3.359374 7.5 7.5 7.5h40c4.144531 0 7.5-3.355469 7.5-7.5v-40c0-4.144531-3.355469-7.5-7.5-7.5zm32.5 40h-25v-25h25zm0 0"/><path d="m196.300781 427c-4.144531 0-7.5 3.355469-7.5 7.5v40c0 4.144531 3.355469 7.5 7.5 7.5h40c4.140625 0 7.5-3.355469 7.5-7.5v-40c0-4.144531-3.359375-7.5-7.5-7.5zm32.5 40h-25v-25h25zm0 0"/><path d="m275.699219 427c-4.140625 0-7.5 3.355469-7.5 7.5v40c0 4.144531 3.359375 7.5 7.5 7.5h40c4.144531 0 7.5-3.355469 7.5-7.5v-40c0-4.144531-3.355469-7.5-7.5-7.5zm32.5 40h-25v-25h25zm0 0"/><path d="m355.101562 427c-4.144531 0-7.5 3.355469-7.5 7.5v40c0 4.144531 3.355469 7.5 7.5 7.5h40c4.140626 0 7.5-3.355469 7.5-7.5v-40c0-4.144531-3.359374-7.5-7.5-7.5zm32.5 40h-25v-25h25zm0 0"/><path d="m482 474.5v-40c0-4.144531-3.359375-7.5-7.5-7.5h-40c-4.140625 0-7.5 3.355469-7.5 7.5v40c0 4.144531 3.359375 7.5 7.5 7.5h40c4.140625 0 7.5-3.355469 7.5-7.5zm-15-7.5h-25v-25h25zm0 0"/><path d="m377.964844 236.480469h-15.832032v-23.496094c0-16.003906-4.386718-31.648437-12.679687-45.246094-2.15625-3.539062-6.773437-4.65625-10.308594-2.5-3.539062 2.15625-4.65625 6.773438-2.5 10.308594 6.859375 11.246094 10.484375 24.191406 10.484375 37.4375v23.496094h-182.925781v-23.496094c0-39.703125 32.300781-72.003906 72.003906-72.003906h38.917969c15.160156 0 29.65625 4.652343 41.925781 13.457031 3.367188 2.417969 8.050781 1.648438 10.46875-1.71875 2.414063-3.367188 1.640625-8.054688-1.722656-10.46875-14.832031-10.644531-32.355469-16.269531-50.671875-16.269531h-38.917969c-47.976562 0-87.003906 39.03125-87.003906 87.003906v23.496094h-15.167969c-12.40625 0-22.5 10.09375-22.5 22.5s10.09375 22.5 22.5 22.5h103.703125c-.148437 7.734375-.929687 13.441406-4.335937 14.808593-5.386719 2.167969-9.832032 7.292969-12.199219 14.0625-1.511719 4.3125-2.003906 8.855469-1.519531 13.160157-12.027344 3.136719-19.71875 9.753906-27.167969 16.164062-7.335937 6.308594-14.921875 12.832031-27.78125 17.125-4.261719 1.433594-7.089844 5.257813-7.203125 9.75-.113281 4.484375 2.515625 8.445313 6.707031 10.09375 10.308594 4.035157 27.371094 9.378907 45.441407 9.378907 17.558593 0 35.753906-5.074219 46.320312-19.363282 10.550781 14.265625 28.71875 19.363282 46.320312 19.363282 18.070313 0 35.140626-5.34375 45.453126-9.382813 4.179687-1.644531 6.8125-5.605469 6.695312-10.089844-.113281-4.492187-2.9375-8.316406-7.214844-9.753906-12.847656-4.289063-20.433594-10.8125-27.769531-17.121094-7.046875-6.0625-14.308594-12.308593-25.25-15.625.582031-4.398437.132813-9.074219-1.386719-13.523437-2.347656-6.855469-6.8125-12.042969-12.25-14.234375-3.410156-1.371094-4.191406-7.074219-4.335937-14.8125h101.703125c12.40625 0 22.5-10.09375 22.5-22.5s-10.09375-22.5-22.5-22.5zm-197.332032 129.917969c9.25-4.679688 15.746094-10.265626 21.664063-15.351563 7.671875-6.601563 13.574219-11.640625 23.589844-13.570313 8.011719 8.667969 11.847656 4.804688 18.140625 9.667969 1.191406 1.242188 2.515625 2.179688 3.871094 2.886719-7.660157 24.289062-42.273438 23.695312-67.265626 16.367188zm150.734376 0c-24.347657 7.136718-58.726563 8.046874-67.007813-15.589844 1.910156-.738282 3.890625-1.886719 5.601563-3.664063 4.640624-3.59375 10.613281-1.851562 17.800781-9.3125 9.105469 2.171875 14.792969 7.0625 21.941406 13.214844 5.917969 5.085937 12.414063 10.675781 21.664063 15.351563zm-56.367188-56.191407c.878906.355469 2.578125 2.023438 3.65625 5.179688 1.265625 3.691406 1.082031 7.667969-.472656 10.410156-.035156.054687-.070313.113281-.105469.171875-3.230469 5.394531-12.558594 4.082031-18.886719 10.734375-.882812.5625-3.53125.523437-4.390625.003906-6.5-6.816406-15.605469-5.109375-18.945312-10.820312-.039063-.074219-.082031-.144531-.121094-.214844-1.507813-2.753906-1.652344-6.710937-.375-10.367187 1.085937-3.101563 2.769531-4.746094 3.640625-5.097657 11.992188-4.824219 13.566406-17.660156 13.746094-28.726562h8.507812c.175782 11.066406 1.742188 23.902343 13.746094 28.726562zm102.964844-43.726562h-243.929688c-4.136718 0-7.5-3.363281-7.5-7.5s3.363282-7.5 7.5-7.5h243.929688c4.136718 0 7.5 3.363281 7.5 7.5s-3.363282 7.5-7.5 7.5zm0 0"/></svg>