<?xml version="1.0" encoding="iso-8859-1"?>
<!-- Generator: Adobe Illustrator 19.0.0, SVG Export Plug-In . SVG Version: 6.00 Build 0)  -->
<svg version="1.1" id="Capa_1" xmlns="http://www.w3.org/2000/svg" xmlns:xlink="http://www.w3.org/1999/xlink" x="0px" y="0px"
	 viewBox="0 0 512 512" style="enable-background:new 0 0 512 512;" xml:space="preserve">
<path style="fill:#303C42;" d="M460.313,128c-17.167,0-32.208,13.688-41.833,25.146c-7.342,8.781-15.671,17.725-26.491,25.954
	c-4.38-26.198-14.395-77.102-30.447-109.204C340.5,27.813,326.604,0,288,0c-11.979,0-22.292,7.854-32.063,17.104
	C245.792,7.708,235.104,0,224,0c-38.583,0-51.75,26.313-73.542,69.896c-15.342,30.684-25.743,82.75-30.345,109.286
	c-10.872-8.251-19.225-17.227-26.592-26.036C83.896,141.688,68.854,128,51.688,128C23.188,128,0,151.188,0,179.688
	c0,54.589,37.001,100.591,87.207,114.54c6.788,13.203,64.842,121.263,153.544,149.749l-26.293,52.586
	c-2.625,5.271-0.5,11.667,4.771,14.313c1.542,0.771,3.167,1.125,4.771,1.125c3.896,0,7.667-2.167,9.542-5.896l23.048-46.096
	l21.764,45.888C280.188,509.75,284.021,512,288,512c1.542,0,3.104-0.333,4.563-1.021c5.333-2.542,7.604-8.896,5.083-14.208
	l-25.033-52.781c87.367-28.426,145.392-136.557,152.18-149.762C474.999,280.277,512,234.275,512,179.688
	C512,151.188,488.813,128,460.313,128z M256.604,426.521c-69.975-16.621-122.826-94.826-142.54-128.103
	c1.643,0.068,3.257,0.249,4.915,0.249h36.508C180.921,311.262,213.281,320,256,320s75.079-8.738,100.513-21.333h36.508
	c1.668,0,3.29-0.182,4.941-0.25C378.227,331.865,325.31,410.686,256.604,426.521z"/>
<path style="fill:#C38355;" d="M169.542,79.438C191.604,35.292,199.75,21.333,224,21.333c4.146,0,12.375,6.125,24.458,18.208
	c4.167,4.167,10.917,4.167,15.083,0c8.104-8.104,18.208-18.208,24.458-18.208c24.458,0,33.813,16.771,54.458,58.104
	c16.642,33.302,26.741,91.673,29.897,111.97C347.406,204.28,311.74,213.333,256,213.333c-55.695,0-91.35-9.04-116.297-21.896
	C143.056,170.772,153.724,111.09,169.542,79.438z"/>
<path style="opacity:0.2;fill:#FFFFFF;enable-background:new    ;" d="M169.542,100.771C191.604,56.625,199.75,42.667,224,42.667
	c4.146,0,12.375,6.125,24.458,18.208c4.167,4.167,10.917,4.167,15.083,0c8.104-8.104,18.208-18.208,24.458-18.208
	c24.458,0,33.813,16.771,54.458,58.104c12.76,25.535,21.637,65.674,26.523,92.221c1.105-0.535,2.309-1.035,3.374-1.585
	c-3.156-20.297-13.255-78.668-29.897-111.97c-20.646-41.333-30-58.104-54.458-58.104c-6.25,0-16.354,10.104-24.458,18.208
	c-4.167,4.167-10.917,4.167-15.083,0C236.375,27.458,228.146,21.333,224,21.333c-24.25,0-32.396,13.958-54.458,58.104
	c-15.818,31.652-26.486,91.335-29.839,112c1.098,0.565,2.336,1.079,3.475,1.63C148.259,166.068,157.348,125.173,169.542,100.771z"/>
<path style="fill:#C38355;" d="M393.021,277.333h-3.004c18.051-14.467,31.316-30.288,42.358-43.521l2.479-2.958
	c6.813-8.167,15.688-17.521,23.813-17.521c5.896,0,10.667-4.771,10.667-10.667S464.563,192,458.667,192
	c-16.854,0-29.771,12.708-40.188,25.146l-2.5,3c-27.646,33.146-65.5,78.521-159.979,78.521s-132.333-45.375-159.979-78.521l-2.5-3
	C83.104,204.708,70.188,192,53.333,192c-5.896,0-10.667,4.771-10.667,10.667s4.771,10.667,10.667,10.667
	c8.125,0,17,9.354,23.813,17.521l2.479,2.958c11.042,13.233,24.307,29.053,42.358,43.521h-3.004
	c-53.833,0-97.646-43.813-97.646-97.646c0-16.729,13.625-30.354,30.354-30.354c6.771,0,16.292,6.542,25.458,17.521
	c29.479,35.208,71.542,67.813,178.854,67.813s149.375-32.604,178.854-67.813c9.167-10.979,18.688-17.521,25.458-17.521
	c16.729,0,30.354,13.625,30.354,30.354C490.667,233.521,446.854,277.333,393.021,277.333z"/>
<path style="opacity:0.1;enable-background:new    ;" d="M415.979,220.146l2.5-3c1.776-2.12,3.734-4.186,5.663-6.258
	c-29.736,29.887-72.128,66.445-168.142,66.445s-138.406-36.559-168.142-66.445c1.928,2.072,3.887,4.138,5.663,6.258l2.5,3
	c27.646,33.146,65.5,78.521,159.979,78.521S388.333,253.292,415.979,220.146z"/>
<path style="opacity:0.1;enable-background:new    ;" d="M96.366,253.09c-38.772-9.275-68.307-41.633-73.719-81.745
	c-0.771,2.668-1.314,5.43-1.314,8.342c0,53.833,43.813,97.646,97.646,97.646h3.004C112.125,269.432,103.786,261.156,96.366,253.09z"
	/>
<path style="opacity:0.1;enable-background:new    ;" d="M415.634,253.091c-7.421,8.066-15.759,16.341-25.617,24.242h3.004
	c53.833,0,97.646-43.813,97.646-97.646c0-2.913-0.543-5.674-1.314-8.342C483.941,211.457,454.406,243.816,415.634,253.091z"/>
<linearGradient id="SVGID_1_" gradientUnits="userSpaceOnUse" x1="-46.1883" y1="638.5801" x2="-25.7962" y2="629.0722" gradientTransform="matrix(21.3333 0 0 -21.3333 998.4985 13763.0791)">
	<stop  offset="0" style="stop-color:#FFFFFF;stop-opacity:0.2"/>
	<stop  offset="1" style="stop-color:#FFFFFF;stop-opacity:0"/>
</linearGradient>
<path style="fill:url(#SVGID_1_);" d="M460.313,128c-17.167,0-32.208,13.688-41.833,25.146
	c-7.342,8.781-15.671,17.725-26.491,25.954c-4.38-26.198-14.395-77.102-30.447-109.204C340.5,27.813,326.604,0,288,0
	c-11.979,0-22.292,7.854-32.063,17.104C245.792,7.708,235.104,0,224,0c-38.583,0-51.75,26.313-73.542,69.896
	c-15.342,30.684-25.743,82.75-30.345,109.286c-10.872-8.251-19.225-17.227-26.592-26.036C83.896,141.688,68.854,128,51.688,128
	C23.188,128,0,151.188,0,179.688c0,54.589,37.001,100.591,87.207,114.54c6.788,13.203,64.842,121.263,153.544,149.749
	l-26.293,52.586c-2.625,5.271-0.5,11.667,4.771,14.313c1.542,0.771,3.167,1.125,4.771,1.125c3.896,0,7.667-2.167,9.542-5.896
	l23.048-46.096l21.764,45.888C280.188,509.75,284.021,512,288,512c1.542,0,3.104-0.333,4.563-1.021
	c5.333-2.542,7.604-8.896,5.083-14.208l-25.033-52.781c87.367-28.426,145.392-136.557,152.18-149.762
	C474.999,280.277,512,234.275,512,179.688C512,151.188,488.813,128,460.313,128z M256.604,426.521
	c-69.975-16.621-122.826-94.826-142.54-128.103c1.643,0.068,3.257,0.249,4.915,0.249h36.508C180.921,311.262,213.281,320,256,320
	s75.079-8.738,100.513-21.333h36.508c1.668,0,3.29-0.182,4.941-0.25C378.227,331.865,325.31,410.686,256.604,426.521z"/>
<g>
</g>
<g>
</g>
<g>
</g>
<g>
</g>
<g>
</g>
<g>
</g>
<g>
</g>
<g>
</g>
<g>
</g>
<g>
</g>
<g>
</g>
<g>
</g>
<g>
</g>
<g>
</g>
<g>
</g>
</svg>
