<svg height="512pt" viewBox="0 0 512 512" width="512pt" xmlns="http://www.w3.org/2000/svg"><path d="m7.5 7.5h497v497h-497zm0 0" fill="#7a727d"/><path d="m474.5 7.5h30v497h-30zm0 0" fill="#645c69"/><path d="m504.5 106.5v299h-497v-299zm0 0" fill="#ffee58"/><path d="m474.5 106.5h30v299h-30zm0 0" fill="#fdd835"/><g fill="#e3e6eb"><path d="m37.5 37.5h40v40h-40zm0 0"/><path d="m116.898438 37.5h40v40h-40zm0 0"/><path d="m196.300781 37.5h40v40h-40zm0 0"/><path d="m275.699219 37.5h40v40h-40zm0 0"/><path d="m355.101562 37.5h40v40h-40zm0 0"/><path d="m434.5 37.5h40v40h-40zm0 0"/><path d="m37.5 434.5h40v40h-40zm0 0"/><path d="m116.898438 434.5h40v40h-40zm0 0"/><path d="m196.300781 434.5h40v40h-40zm0 0"/><path d="m275.699219 434.5h40v40h-40zm0 0"/><path d="m355.101562 434.5h40v40h-40zm0 0"/><path d="m434.5 434.5h40v40h-40zm0 0"/></g><path d="m322.066406 216.171875-107.851562 107.851563-42.425782-42.425782 107.9375-107.9375c.589844-.589844 1.347657-.980468 2.1875-1.125l46.628907-6.394531c.324219-.042969.632812.078125.84375.289063.210937.214843.324219.511718.273437.84375l-6.421875 46.515624c-.117187.90625-.523437 1.738282-1.171875 2.382813zm0 0" fill="#cccfd4"/><path d="m322.066406 216.171875-107.851562 107.851563-21.210938-21.210938 136.382813-136.382812c.210937.210937.324219.511718.273437.84375l-6.421875 46.515624c-.117187.90625-.523437 1.738282-1.171875 2.382813zm0 0" fill="#c4c7cc"/><path d="m230.480469 321.902344-56.570313-56.566406c-5.078125-5.078126-13.308594-5.078126-18.386718 0-5.074219 5.074218-5.074219 13.308593 0 18.382812l56.570312 56.570312c5.078125 5.078126 13.308594 5.078126 18.386719 0 5.074219-5.078124 5.074219-13.308593 0-18.386718zm0 0" fill="#f54558"/><path d="m230.480469 321.902344-21.214844-21.210938c5.078125 5.078125 5.078125 13.308594 0 18.382813-5.078125 5.078125-13.308594 5.078125-18.382813 0l21.210938 21.214843c5.078125 5.078126 13.308594 5.078126 18.386719 0 5.074219-5.078124 5.074219-13.308593 0-18.386718zm0 0" fill="#e64152"/><path d="m232.359375 173.746094 107.851563 107.851562-42.425782 42.425782-107.9375-107.933594c-.589844-.59375-.980468-1.351563-1.125-2.1875l-6.394531-46.628906c-.042969-.328126.074219-.632813.289063-.84375.210937-.210938.507812-.324219.84375-.277344l46.515624 6.425781c.90625.117187 1.734376.523437 2.382813 1.167969zm0 0" fill="#e3e6eb"/><path d="m232.359375 173.746094 107.851563 107.851562-21.214844 21.214844-136.378906-136.382812c.210937-.210938.507812-.324219.84375-.273438l46.515624 6.421875c.90625.117187 1.734376.523437 2.382813 1.167969zm0 0" fill="#cccfd4"/><path d="m338.089844 265.335938-56.570313 56.566406c-5.074219 5.078125-5.074219 13.308594 0 18.386718 5.078125 5.078126 13.308594 5.078126 18.386719 0l56.570312-56.570312c5.074219-5.074219 5.074219-13.308594 0-18.382812-5.078124-5.078126-13.308593-5.078126-18.386718 0zm0 0" fill="#f54558"/><path d="m338.089844 265.335938-21.210938 21.210937c5.074219-5.074219 13.304688-5.074219 18.382813 0 5.078125 5.078125 5.078125 13.308594 0 18.386719l21.214843-21.214844c5.074219-5.074219 5.074219-13.308594 0-18.382812-5.078124-5.078126-13.308593-5.078126-18.386718 0zm0 0" fill="#e64152"/><path d="m504.5 135c4.140625 0 7.5-3.355469 7.5-7.5v-120c0-4.144531-3.359375-7.5-7.5-7.5h-440.5c-4.140625 0-7.5 3.355469-7.5 7.5s3.359375 7.5 7.5 7.5h433v84h-482v-84h17.5c4.140625 0 7.5-3.355469 7.5-7.5s-3.359375-7.5-7.5-7.5h-25c-4.140625 0-7.5 3.355469-7.5 7.5v497c0 4.144531 3.359375 7.5 7.5 7.5h497c4.140625 0 7.5-3.355469 7.5-7.5v-345c0-4.144531-3.359375-7.5-7.5-7.5s-7.5 3.355469-7.5 7.5v238.5h-48.832031c-4.144531 0-7.5 3.355469-7.5 7.5s3.355469 7.5 7.5 7.5h48.832031v84h-482v-84h401.167969c4.140625 0 7.5-3.355469 7.5-7.5s-3.359375-7.5-7.5-7.5h-401.167969v-284h482v13.5c0 4.144531 3.359375 7.5 7.5 7.5zm0 0"/><path d="m30 37.5v40c0 4.144531 3.359375 7.5 7.5 7.5h40c4.140625 0 7.5-3.355469 7.5-7.5v-40c0-4.144531-3.359375-7.5-7.5-7.5h-40c-4.140625 0-7.5 3.355469-7.5 7.5zm15 7.5h25v25h-25zm0 0"/><path d="m156.898438 85c4.144531 0 7.5-3.355469 7.5-7.5v-40c0-4.144531-3.355469-7.5-7.5-7.5h-40c-4.140626 0-7.5 3.355469-7.5 7.5v40c0 4.144531 3.359374 7.5 7.5 7.5zm-32.5-40h25v25h-25zm0 0"/><path d="m236.300781 85c4.140625 0 7.5-3.355469 7.5-7.5v-40c0-4.144531-3.359375-7.5-7.5-7.5h-40c-4.144531 0-7.5 3.355469-7.5 7.5v40c0 4.144531 3.355469 7.5 7.5 7.5zm-32.5-40h25v25h-25zm0 0"/><path d="m315.699219 85c4.144531 0 7.5-3.355469 7.5-7.5v-40c0-4.144531-3.355469-7.5-7.5-7.5h-40c-4.140625 0-7.5 3.355469-7.5 7.5v40c0 4.144531 3.359375 7.5 7.5 7.5zm-32.5-40h25v25h-25zm0 0"/><path d="m395.101562 85c4.140626 0 7.5-3.355469 7.5-7.5v-40c0-4.144531-3.359374-7.5-7.5-7.5h-40c-4.144531 0-7.5 3.355469-7.5 7.5v40c0 4.144531 3.355469 7.5 7.5 7.5zm-32.5-40h25v25h-25zm0 0"/><path d="m474.5 85c4.140625 0 7.5-3.355469 7.5-7.5v-40c0-4.144531-3.359375-7.5-7.5-7.5h-40c-4.140625 0-7.5 3.355469-7.5 7.5v40c0 4.144531 3.359375 7.5 7.5 7.5zm-32.5-40h25v25h-25zm0 0"/><path d="m37.5 427c-4.140625 0-7.5 3.355469-7.5 7.5v40c0 4.144531 3.359375 7.5 7.5 7.5h40c4.140625 0 7.5-3.355469 7.5-7.5v-40c0-4.144531-3.359375-7.5-7.5-7.5zm32.5 40h-25v-25h25zm0 0"/><path d="m116.898438 427c-4.140626 0-7.5 3.355469-7.5 7.5v40c0 4.144531 3.359374 7.5 7.5 7.5h40c4.144531 0 7.5-3.355469 7.5-7.5v-40c0-4.144531-3.355469-7.5-7.5-7.5zm32.5 40h-25v-25h25zm0 0"/><path d="m196.300781 427c-4.144531 0-7.5 3.355469-7.5 7.5v40c0 4.144531 3.355469 7.5 7.5 7.5h40c4.140625 0 7.5-3.355469 7.5-7.5v-40c0-4.144531-3.359375-7.5-7.5-7.5zm32.5 40h-25v-25h25zm0 0"/><path d="m275.699219 427c-4.140625 0-7.5 3.355469-7.5 7.5v40c0 4.144531 3.359375 7.5 7.5 7.5h40c4.144531 0 7.5-3.355469 7.5-7.5v-40c0-4.144531-3.355469-7.5-7.5-7.5zm32.5 40h-25v-25h25zm0 0"/><path d="m355.101562 427c-4.144531 0-7.5 3.355469-7.5 7.5v40c0 4.144531 3.355469 7.5 7.5 7.5h40c4.140626 0 7.5-3.355469 7.5-7.5v-40c0-4.144531-3.359374-7.5-7.5-7.5zm32.5 40h-25v-25h25zm0 0"/><path d="m427 474.5c0 4.144531 3.359375 7.5 7.5 7.5h40c4.140625 0 7.5-3.355469 7.5-7.5v-40c0-4.144531-3.359375-7.5-7.5-7.5h-40c-4.140625 0-7.5 3.355469-7.5 7.5zm15-32.5h25v25h-25zm0 0"/><path d="m342.609375 351.171875c1.460937 1.464844 3.382813 2.195313 5.300781 2.195313 1.917969 0 3.839844-.730469 5.304688-2.195313l7.019531-7.019531c.015625-.015625.03125-.03125.046875-.046875s.03125-.035157.046875-.050781l7.027344-7.027344c2.929687-2.925782 2.929687-7.675782 0-10.605469-2.929688-2.925781-7.675781-2.929687-10.605469.003906l-1.769531 1.769531-16.183594-16.191406 22.980469-22.976562c3.871094-3.875 6.003906-9.019532 6.003906-14.496094s-2.132812-10.625-6.003906-14.496094c-7.992188-7.992187-20.996094-7.992187-28.992188 0l-1.765625 1.769532-21.984375-21.984376 18.335938-18.34375c1.796875-1.796874 2.972656-4.175781 3.300781-6.660156l6.402344-46.421875c.410156-2.699219-.507813-5.429687-2.453125-7.328125-1.855469-1.820312-4.394532-2.679687-6.984375-2.371094-.039063.007813-.078125.011719-.117188.015626l-46.628906 6.402343c-.074219.007813-.148437.019531-.226563.03125-2.378906.402344-4.535156 1.511719-6.238281 3.214844l-18.425781 18.421875-18.335938-18.332031c-1.808593-1.808594-4.1875-2.980469-6.714843-3.304688l-46.371094-6.402343c-2.625-.394532-5.308594.472656-7.199219 2.324218-1.9375 1.886719-2.859375 4.585938-2.476562 7.257813l6.386718 46.59375c.015626.101562.03125.199219.046876.300781.421874 2.363281 1.53125 4.5 3.207031 6.171875l18.421875 18.425781-21.980469 21.984375-1.769531-1.769531c-7.992188-7.992188-21-7.992188-28.992188 0-3.871094 3.871094-6.003906 9.019531-6.003906 14.496094 0 5.476562 2.132812 10.625 6.003906 14.496094l22.980469 22.980468-16.183594 16.1875-1.769531-1.769531c-2.929688-2.929687-7.679688-2.929687-10.605469 0-2.929687 2.929687-2.929687 7.675781 0 10.605469l7.042969 7.042968c.011719.011719.019531.023438.03125.03125.007812.007813.019531.019532.027344.027344l7.039062 7.039063c1.464844 1.464843 3.386719 2.195312 5.304688 2.195312 1.917968 0 3.839844-.730469 5.300781-2.195312 2.929687-2.929688 2.929687-7.679688 0-10.605469l-1.761719-1.765625 16.179688-16.1875 22.984375 22.980469c3.871093 3.871094 9.019531 6.003906 14.496093 6.003906 5.476563 0 10.621094-2.132812 14.496094-6.003906 3.871094-3.871094 6.003906-9.019532 6.003906-14.496094s-2.132812-10.621094-6.003906-14.496094l-1.769531-1.769531 21.980469-21.980469 21.984375 21.988282-1.761719 1.761718c-3.871094 3.871094-6.003906 9.019532-6.003906 14.496094s2.132812 10.625 6.003906 14.496094 9.019531 6.003906 14.496094 6.003906c5.476562 0 10.625-2.132812 14.496094-6.003906l22.980468-22.980469 16.183594 16.1875-1.765625 1.765625c-2.929687 2.929688-2.929687 7.679688 0 10.609375zm-58.410156-171.375 36.859375-5.058594-5.097656 36.933594-17.53125 17.542969-31.824219-31.824219zm-59.023438 155.1875c-1.039062 1.039063-2.417969 1.609375-3.890625 1.609375-1.46875 0-2.847656-.570312-3.886718-1.609375l-28.148438-28.148437c-.042969-.046876-.089844-.09375-.136719-.140626-.046875-.046874-.09375-.09375-.140625-.136718l-28.144531-28.144532c-1.039063-1.035156-1.609375-2.417968-1.609375-3.886718s.570312-2.851563 1.609375-3.890625c1.074219-1.070313 2.480469-1.609375 3.890625-1.609375s2.816406.539062 3.890625 1.609375l6.902344 6.902343c.054687.058594.109375.117188.164062.171876.058594.058593.113281.113281.171875.167968l49.328125 49.324219c1.039063 1.039063 1.609375 2.421875 1.609375 3.890625 0 1.472656-.570312 2.851562-1.609375 3.890625zm-1.769531-30.757813-31.816406-31.820312 21.984375-21.984375 31.816406 31.820313zm38.074219-27.109374c-.058594-.058594-.117188-.121094-.175781-.179688-.0625-.058594-.121094-.117188-.183594-.175781l-65.144532-65.152344-5.050781-36.847656 36.9375 5.097656 65.257813 65.257813c.003906.003906.003906.003906.007812.007812 0 .003906.003906.003906.003906.007812l27.277344 27.273438-31.824218 31.824219zm33.121093 57.867187c-1.039062 1.039063-2.417968 1.609375-3.886718 1.609375s-2.851563-.570312-3.890625-1.609375c-1.039063-1.039063-1.609375-2.417969-1.609375-3.890625 0-1.46875.570312-2.851562 1.609375-3.886719l6.917969-6.917969c.050781-.046874.101562-.097656.152343-.144531.046875-.050781.097657-.101562.144531-.152343l42.121094-42.121094c.054688-.050782.109375-.105469.164063-.15625.054687-.054688.109375-.109375.160156-.164063l6.910156-6.914062c2.144531-2.144531 5.636719-2.140625 7.777344 0 1.039063 1.039062 1.613281 2.421875 1.613281 3.890625s-.574218 2.851562-1.613281 3.886718l-28.132813 28.136719c-.050781.046875-.101562.09375-.148437.144531-.050781.050782-.101563.101563-.148437.152344zm0 0"/></svg>