<svg height="479.88458pt" viewBox="0 0 479.88458 479.88458" width="479.88458pt" xmlns="http://www.w3.org/2000/svg"><path d="m302.167969 155.085938 147.078125-147.078126 22.628906 22.625-147.078125 147.078126zm0 0" fill="#ff5023"/><path d="m8.011719 449.246094 147.078125-147.082032 22.625 22.628907-147.074219 147.078125zm0 0" fill="#ff5023"/><g fill="#544028"><path d="m211.652344 313.476562 107.480468-107.476562-76.359374 31.109375zm0 0"/><path d="m242.773438 237.109375 76.359374-31.109375-45.246093-45.257812zm0 0"/><path d="m166.40625 268.230469 76.367188-31.121094 31.113281-76.367187-113.136719 113.144531 45.25 45.246093 5.652344-5.65625 31.121094-76.367187zm0 0"/></g><path d="m279.542969 132.460938-16.976563 16.96875 11.320313 11.3125 45.246093 45.257812 11.320313 11.316406 16.96875-16.972656-22.625-22.625-22.628906-22.632812zm0 0" fill="#a0815c"/><path d="m132.460938 279.542969 22.625 22.625 22.632812 22.628906 22.625 22.625 16.972656-16.96875-67.886718-67.886719zm0 0" fill="#a0815c"/><path d="m477.542969 24.980469-22.640625-22.636719c-3.125-3.125-8.1875-3.125-11.3125 0l-141.421875 141.429688-16.96875-16.96875c-3.125-3.121094-8.1875-3.121094-11.3125 0l-16.976563 16.96875c-1.503906 1.5-2.347656 3.539062-2.347656 5.660156 0 2.125.84375 4.160156 2.347656 5.660156l5.65625 5.65625-101.824218 101.816406-5.65625-5.65625c-3.175782-2.996094-8.140626-2.996094-11.320313 0l-16.96875 16.976563c-3.121094 3.125-3.121094 8.1875 0 11.3125l16.96875 16.96875-141.421875 141.421875c-3.125 3.125-3.125 8.1875 0 11.3125l22.636719 22.640625c3.125 3.121093 8.191406 3.121093 11.3125 0l141.425781-141.433594 16.96875 16.96875c3.121094 3.125 8.1875 3.125 11.3125 0l16.972656-16.96875c1.503906-1.5 2.347656-3.535156 2.347656-5.660156 0-2.121094-.84375-4.160157-2.347656-5.660157l-5.65625-5.65625 101.824219-101.816406 5.65625 5.65625c1.503906 1.503906 3.539063 2.347656 5.660156 2.347656 2.125 0 4.160157-.84375 5.660157-2.347656l16.96875-16.972656c3.125-3.125 3.125-8.191406 0-11.3125l-16.96875-16.96875 141.425781-141.425781c3.121093-3.121094 3.121093-8.1875 0-11.3125zm-172.578125 178.160156-47.621094 19.402344 19.398438-47.625zm-76.796875 48.546875-22.625 55.65625-33-33zm-28.136719-5.808594 51.472656-51.472656-14.867187 36.574219zm48.800781-2.632812 36.574219-14.894532-51.472656 51.472657zm-218.195312 217.3125-11.308594-11.3125 135.765625-135.769532 11.3125 11.3125zm169.707031-124.449219-16.96875-16.96875-22.632812-22.628906-16.96875-16.96875 5.664062-5.664063 5.65625 5.65625 45.257812 45.253906 5.65625 5.65625zm130.101562-130.101563-5.640624-5.648437-45.253907-45.21875-5.65625-5.65625 5.664063-5.660156 16.953125 16.917969 22.628906 22.632812 16.976563 16.96875zm-5.65625-39.601562-11.3125-11.3125 135.769532-135.765625 11.3125 11.308594zm0 0" fill="#1c1c1c"/></svg>