<svg height="480pt" viewBox="-48 0 480 480" width="480pt" xmlns="http://www.w3.org/2000/svg"><path d="m264 120v-112h-256v464h368v-352zm0 0" fill="#d8d8d3"/><path d="m264 8 112 112h-112zm0 0" fill="#c4c3c3"/><path d="m92 200c17.894531-.019531 34.515625-9.242188 44-24.414062 12.308594 19.652343 36.140625 28.78125 58.429688 22.375 22.285156-6.402344 37.640624-26.789063 37.640624-49.976563s-15.355468-43.574219-37.640624-49.980469c-22.289063-6.402344-46.121094 2.726563-58.429688 22.378906-13.28125-21.1875-39.761719-29.921874-63.042969-20.796874-23.277343 9.128906-36.765625 33.535156-32.105469 58.101562 4.65625 24.570312 26.144532 42.339844 51.148438 42.3125zm88-88c19.882812 0 36 16.117188 36 36s-16.117188 36-36 36-36-16.117188-36-36c.023438-19.875 16.125-35.976562 36-36zm-88 0c19.882812 0 36 16.117188 36 36s-16.117188 36-36 36-36-16.117188-36-36c.023438-19.875 16.125-35.976562 36-36zm0 0" fill="#4e4e4e"/><path d="m339.695312 176.902344c-2.640624-1.386719-5.839843-1.175782-8.28125.546875l-77.933593 54.550781h-21.480469v-8c0-4.417969-3.582031-8-8-8h-176c-4.417969 0-8 3.582031-8 8v136c0 4.417969 3.582031 8 8 8h176c4.417969 0 8-3.582031 8-8v-8h21.785156l78.09375 46.855469c2.472656 1.484375 5.550782 1.527343 8.058594.105469 2.511719-1.417969 4.0625-4.078126 4.0625-6.960938v-208c0-2.984375-1.660156-5.71875-4.304688-7.097656zm-123.695312 175.097656h-160v-120h160zm16-104h16v88h-16zm96 129.863281-64-38.398437v-95.296875l64-44.800781zm0 0" fill="#4e4e4e"/><path d="m0 472c0 4.417969 3.582031 8 8 8h368c4.417969 0 8-3.582031 8-8v-352c0-.167969-.089844-.3125-.097656-.480469-.046875-.726562-.191406-1.441406-.429688-2.128906-.074218-.253906-.164062-.503906-.265625-.75-.375-.828125-.882812-1.589844-1.511719-2.25l-.046874-.054687-112-112-.046876-.03125c-.65625-.625-1.414062-1.136719-2.242187-1.503907-.238281-.113281-.488281-.175781-.734375-.265625-.695312-.246094-1.425781-.390625-2.160156-.429687-.152344-.042969-.308594-.0781252-.464844-.105469h-256c-4.417969 0-8 3.582031-8 8zm272-444.6875 84.6875 84.6875h-84.6875zm-256-11.3125h240v104c0 4.417969 3.582031 8 8 8h104v336h-352zm0 0"/><path d="m92 200c17.894531-.019531 34.515625-9.242188 44-24.414062 12.308594 19.652343 36.140625 28.78125 58.429688 22.375 22.285156-6.402344 37.640624-26.789063 37.640624-49.976563s-15.355468-43.574219-37.640624-49.980469c-22.289063-6.402344-46.121094 2.726563-58.429688 22.378906-13.28125-21.1875-39.761719-29.921874-63.042969-20.796874-23.277343 9.128906-36.765625 33.535156-32.105469 58.101562 4.65625 24.570312 26.144532 42.339844 51.148438 42.3125zm88-88c19.882812 0 36 16.117188 36 36s-16.117188 36-36 36-36-16.117188-36-36c.023438-19.875 16.125-35.976562 36-36zm-88 0c19.882812 0 36 16.117188 36 36s-16.117188 36-36 36-36-16.117188-36-36c.023438-19.875 16.125-35.976562 36-36zm0 0"/><path d="m339.695312 176.902344c-2.640624-1.386719-5.839843-1.175782-8.28125.546875l-77.933593 54.550781h-21.480469v-8c0-4.417969-3.582031-8-8-8h-176c-4.417969 0-8 3.582031-8 8v136c0 4.417969 3.582031 8 8 8h176c4.417969 0 8-3.582031 8-8v-8h21.785156l78.09375 46.855469c2.472656 1.484375 5.550782 1.527343 8.058594.105469 2.511719-1.417969 4.0625-4.078126 4.0625-6.960938v-208c0-2.984375-1.660156-5.71875-4.304688-7.097656zm-123.695312 63.097656v112h-160v-120h160zm32 96h-16v-88h16zm80 41.863281-64-38.398437v-95.296875l64-44.800781zm0 0"/></svg>