<svg height="512pt" viewBox="0 0 511 512" width="512pt" xmlns="http://www.w3.org/2000/svg"><path d="m279.328125 280.34375-224.15625 224.15625h-47.171875v-181.484375l29.578125-29.574219h42.277344v-166.785156c0-65.808594 53.34375-119.15625 119.152343-119.15625h119.15625v220.246094l-45.71875 45.71875zm47.914063 13.097656-17.40625 17.410156-6.882813-6.882812-200.53125 200.53125h287.59375v-181.484375l-29.574219-29.574219zm0 0" fill="#787680"/><path d="m279.328125 280.34375-6.882813-6.878906 13.476563-13.476563v-125.578125c0-48-38.914063-86.910156-86.910156-86.910156-48 0-86.910157 38.910156-86.910157 86.910156v177.734375h135.429688zm0 0" fill="#57565c"/><path d="m198.296875 236.71875h37.667969l8.6875-27.996094 41.265625-41.265625v-33.285156c0-47.960937-38.949219-86.804687-86.910157-86.671875-47.957031-.132812-86.910156 38.710938-86.910156 86.671875v33.285156l41.265625 41.265625 8.691407 27.996094h37.667968zm0 0" fill="#fff5cc"/><path d="m175.046875 165.214844h-24.40625c-2.765625-2.152344-4.65625-3.621094-7.417969-5.769532l-5.019531-19.761718c3.703125-4.761719 5.265625-6.765625 8.96875-11.527344h32.089844c3.703125 4.761719 5.261719 6.765625 8.964843 11.527344l-4.832031 19.039062c-3.109375 2.417969-5.238281 4.070313-8.347656 6.492188zm0 0" fill="#787680"/><path d="m222.972656 165.214844h24.40625c2.765625-2.152344 4.65625-3.621094 7.417969-5.769532l5.019531-19.761718c-3.707031-4.761719-5.265625-6.765625-8.96875-11.527344h-32.089844c-3.703124 4.761719-5.261718 6.765625-8.96875 11.527344l4.835938 19.039062c3.109375 2.417969 5.238281 4.070313 8.347656 6.492188zm0 0" fill="#787680"/><path d="m199.007812 201.441406-16.949218-6.960937 16.949218-26.9375 16.953126 26.9375zm0 0" fill="#787680"/><path d="m244.65625 208.71875-8.691406 28h-73.910156l-8.691407-28-10.234375-10.234375v55.617187c4.382813 4.378907 6.839844 6.835938 11.222656 11.21875h88.761719c4.582031-4.578124 7.199219-7.195312 11.777344-11.773437v-55.0625zm0 0" fill="#fff5cc"/><path d="m361.417969 184.484375 37.390625 37.386719-88.976563 88.976562-37.386719-37.390625zm0 0" fill="#e5e4e6"/><path d="m343.839844 276.84375 142.152344 142.152344.371093-.367188c24.753907-24.757812 24.753907-64.894531-.371093-89.28125l-97.328126-97.328125zm0 0" fill="#e5e4e6"/><path d="m55.171875 504.5h47.25l200.53125-200.53125-23.625-23.625zm0 0" fill="#ffb655"/><path d="m109.855469 126.65625c0-65.808594 53.34375-119.15625 119.152343-119.15625h-30c-65.808593 0-119.152343 53.347656-119.152343 119.15625v166.785156h30zm0 0" fill="#57565c"/><path d="m339.835938 310.851562 17.40625-17.410156h-30l-17.40625 17.410156-6.882813-6.882812-200.53125 200.53125h30l200.53125-200.53125zm0 0" fill="#57565c"/><path d="m67.578125 293.441406h-30l-29.578125 29.574219v181.484375h30v-181.484375zm0 0" fill="#57565c"/><path d="m142.097656 167.457031v-33.285156c0-42.847656 31.085938-78.414063 71.910156-85.417969-4.871093-.839844-9.882812-1.269531-15-1.253906-47.957031-.132812-86.910156 38.710938-86.910156 86.671875v33.285156l41.265625 41.265625 8.691407 27.996094h30l-8.691407-27.996094zm0 0" fill="#ffc477"/><path d="m173.128906 254.101562v-17.382812h-11.074218l-8.691407-27.996094-10.234375-10.238281v55.617187c4.382813 4.378907 6.839844 6.835938 11.222656 11.21875h30c-4.382812-4.382812-6.839843-6.839843-11.222656-11.21875zm0 0" fill="#ffc477"/><path d="m302.445312 273.464844 73.976563-73.976563-15-15-88.976563 88.976563 37.390626 37.386718 15-15zm0 0" fill="#a9a8ae"/><path d="m373.839844 276.84375 29.824218-29.824219-15-15-44.824218 44.824219 142.152344 142.152344.371093-.367188c5.121094-5.125 9.1875-10.90625 12.1875-17.074218zm0 0" fill="#a9a8ae"/><path d="m279.328125 280.34375-224.15625 224.15625h30l209.15625-209.15625zm0 0" fill="#ff7956"/><path d="m143.503906 120.65625-13.472656 17.320312 6.554688 25.808594 11.480468 8.929688h29.554688l12.40625-9.652344 6.371094-25.085938-13.472657-17.320312zm33.253906 33.726562-4.285156 3.332032h-19.261718l-3.355469-2.609375-3.480469-13.710938 4.464844-5.738281h24.753906l4.460938 5.738281zm0 0"/><path d="m249.953125 172.714844 11.480469-8.929688 6.554687-25.808594-13.472656-17.324218h-39.425781l-13.472656 17.324218 6.371093 25.085938 12.410157 9.652344zm-27.527344-37.058594h24.753907l4.464843 5.738281-3.484375 13.710938-3.355468 2.609375h-19.257813l-4.285156-3.335938-3.296875-12.984375zm0 0"/><path d="m170.964844 198.03125 28.042968 11.519531 28.046876-11.519531-28.046876-44.570312zm28.042968-4.699219-5.855468-2.402343 5.855468-9.304688 5.855469 9.304688zm0 0"/><path d="m151.242188 272.820312h94.980468l16.167969-16.167968v-55.058594l8.832031-8.835938-10.605468-10.605468-22.574219 22.574218-7.601563 24.492188h-2.375v-9.730469h-15v9.730469h-6.554687v-9.730469h-15v9.730469h-6.558594v-9.730469h-15v9.730469h-2.375l-7.601563-24.492188-22.574218-22.574218-10.605469 10.605468 8.832031 8.835938v55.613281zm90.246093-28.601562 5.902344-19.007812v25.226562l-7.382813 7.382812h-82.554687l-6.824219-6.828124v-25.777344l5.898438 19.003906zm0 0"/><path d="m512.382812 373.503906c-.144531-18.8125-7.644531-36.390625-21.125-49.496094l-91.988281-91.988281 10.144531-10.140625-47.992187-47.996094-99.582031 99.582032 6.882812 6.878906-183.222656 183.222656v-75.550781h-15v90.550781l-33.433594 33.433594h68.464844l197.421875-197.425781 6.882813 6.882812 34.003906-34.003906 142.148437 142.148437 5.675781-5.667968c13.5-13.5 20.859376-31.410156 20.71875-50.429688zm-150.960937-178.40625 26.777344 26.78125-78.363281 78.363282-26.78125-26.777344zm-262.105469 301.902344h-26.039062l206.050781-206.050781 13.019531 13.019531zm386.375-88.910156-131.246094-131.242188 34.21875-34.21875 92.023438 92.023438.082031.078125c10.601563 10.292969 16.5 24.101562 16.613281 38.886719.09375 12.628906-4.019531 24.640624-11.691406 34.472656zm0 0"/><path d="m15.5 326.125 25.183594-25.183594h46.671875v-174.285156c0-61.566406 50.085937-111.65625 111.652343-111.65625h111.65625v184.460938h15v-199.460938h-126.65625c-69.835937 0-126.652343 56.816406-126.652343 126.65625v159.285156h-37.886719l-33.96875 33.96875v192.089844h26.386719v-15h-11.386719zm0 0"/><path d="m382.519531 354.414062v142.585938h-55v-108.984375h-15v108.984375h-181.8125v15h266.8125v-157.585938zm0 0"/><path d="m293.421875 231.707031v-97.296875c0-52.058594-42.355469-94.410156-94.410156-94.410156-52.058594 0-94.410157 42.351562-94.410157 94.410156v185.230469h114.644532v-15h-99.644532v-170.230469c0-43.789062 35.621094-79.410156 79.410157-79.410156 43.785156 0 79.410156 35.621094 79.410156 79.410156v97.296875zm0 0"/><g fill="#fff"><path d="m240.851562 99.671875c-4.949218-5.949219-11.226562-10.875-18.15625-14.238281l6.554688-13.492188c8.832031 4.289063 16.828125 10.5625 23.132812 18.136719zm-60.84375-16.25-5.257812-14.050781c5.25-1.960938 10.742188-3.28125 16.324219-3.921875l1.707031 14.902343c-4.371094.503907-8.667969 1.535157-12.773438 3.070313zm34.515626-1.171875c-4.199219-1.25-8.558594-1.988281-12.960938-2.191406l.695312-14.984375c5.617188.261719 11.1875 1.203125 16.550782 2.804687zm0 0"/><path d="m302.796875 484.5h-15v-66.484375h15zm0-76.484375h-15v-15h15zm0-25h-15v-15h15zm0 0"/><path d="m487.28125 377.28125-14.957031-1.136719c.054687-.703125.078125-1.421875.078125-2.128906 0-7.925781-3.332032-15.628906-9.390625-21.6875l-44.113281-44.523437 10.652343-10.558594 44.089844 44.5c8.867187 8.867187 13.761719 20.332031 13.761719 32.265625 0 1.089843-.039063 2.1875-.121094 3.269531zm-75.421875-76.582031-10.558594-10.652344 10.65625-10.558594 10.558594 10.65625zm-17.597656-17.757813-10.554688-10.65625 10.65625-10.558594 10.554688 10.65625zm0 0"/><path d="m293.9375 90.949219c-7.050781-15.34375-17.882812-28.929688-31.320312-39.285157l9.15625-11.878906c15.351562 11.832032 27.730468 27.355469 35.792968 44.898438zm-38.957031-44.644531c-3.925781-2.503907-8.054688-4.761719-12.269531-6.710938l6.300781-13.613281c4.820312 2.230469 9.542969 4.8125 14.03125 7.675781zm-20.898438-10.246094c-4.375-1.566406-8.898437-2.84375-13.449219-3.808594l3.101563-14.675781c5.207031 1.101562 10.390625 2.570312 15.398437 4.359375zm0 0"/><path d="m315.136719 280.796875-10.605469-10.605469 18.265625-18.261718 10.605469 10.605468zm25.335937-25.332031-10.605468-10.605469 10.605468-10.605469 10.605469 10.605469zm17.675782-17.679688-10.605469-10.605468 10.605469-10.605469 10.605468 10.605469zm0 0"/></g></svg>